<svg width="305" height="80" viewBox="0 0 305 80" fill="none" xmlns="http://www.w3.org/2000/svg">
<g filter="url(#filter0_d_454_167)">
<rect x="16" y="8" width="273" height="48" rx="24" fill="url(#paint0_linear_454_167)"/>
</g>
<mask id="mask0_454_167" style="mask-type:alpha" maskUnits="userSpaceOnUse" x="16" y="8" width="273" height="48">
<rect x="16" y="8" width="273" height="48" rx="24" fill="url(#paint1_linear_454_167)"/>
</mask>
<g mask="url(#mask0_454_167)">
<ellipse rx="61.5408" ry="49.0968" transform="matrix(0.979412 -0.201871 0.328948 0.944348 37.8241 -15.2122)" fill="url(#paint2_linear_454_167)"/>
<ellipse rx="51.9754" ry="59.1297" transform="matrix(-0.600284 -0.799787 0.913923 -0.405887 256.24 73.5692)" fill="url(#paint3_linear_454_167)"/>
</g>
<path d="M120.046 33.0453H128.926V34.5573H120.046V33.0453ZM120.238 40.7973H130.342V42.3333H118.462V25.5333H129.982V27.0693H120.238V40.7973ZM140.589 29.6133C141.613 29.6133 142.509 29.8133 143.277 30.2133C144.061 30.5973 144.669 31.1893 145.101 31.9893C145.549 32.7893 145.773 33.7973 145.773 35.0133V42.3333H144.069V35.1813C144.069 33.8533 143.733 32.8533 143.061 32.1813C142.405 31.4933 141.477 31.1493 140.277 31.1493C139.381 31.1493 138.597 31.3333 137.925 31.7013C137.269 32.0533 136.757 32.5733 136.389 33.2613C136.037 33.9333 135.861 34.7493 135.861 35.7093V42.3333H134.157V29.7333H135.789V33.1893L135.525 32.5413C135.925 31.6293 136.565 30.9173 137.445 30.4053C138.325 29.8773 139.373 29.6133 140.589 29.6133ZM153.381 42.3333L147.789 29.7333H149.565L154.701 41.4213H153.861L159.069 29.7333H160.749L155.133 42.3333H153.381ZM163.149 42.3333V29.7333H164.853V42.3333H163.149ZM164.013 26.9493C163.661 26.9493 163.365 26.8293 163.125 26.5893C162.885 26.3493 162.765 26.0613 162.765 25.7253C162.765 25.3893 162.885 25.1093 163.125 24.8853C163.365 24.6453 163.661 24.5253 164.013 24.5253C164.365 24.5253 164.661 24.6373 164.901 24.8613C165.141 25.0853 165.261 25.3653 165.261 25.7013C165.261 26.0533 165.141 26.3493 164.901 26.5893C164.677 26.8293 164.381 26.9493 164.013 26.9493ZM177.49 42.3333V39.5493L177.418 39.0933V34.4373C177.418 33.3653 177.114 32.5413 176.506 31.9653C175.914 31.3893 175.026 31.1013 173.842 31.1013C173.026 31.1013 172.25 31.2373 171.514 31.5093C170.778 31.7813 170.154 32.1413 169.642 32.5893L168.874 31.3173C169.514 30.7733 170.282 30.3573 171.178 30.0693C172.074 29.7653 173.018 29.6133 174.01 29.6133C175.642 29.6133 176.898 30.0213 177.778 30.8373C178.674 31.6373 179.122 32.8613 179.122 34.5093V42.3333H177.49ZM173.146 42.4533C172.202 42.4533 171.378 42.3013 170.674 41.9973C169.986 41.6773 169.458 41.2453 169.09 40.7013C168.722 40.1413 168.538 39.5013 168.538 38.7813C168.538 38.1253 168.69 37.5333 168.994 37.0053C169.314 36.4613 169.826 36.0293 170.53 35.7093C171.25 35.3733 172.21 35.2053 173.41 35.2053H177.754V36.4773H173.458C172.242 36.4773 171.394 36.6933 170.914 37.1253C170.45 37.5573 170.218 38.0933 170.218 38.7333C170.218 39.4533 170.498 40.0293 171.058 40.4613C171.618 40.8933 172.402 41.1093 173.41 41.1093C174.37 41.1093 175.194 40.8933 175.882 40.4613C176.586 40.0133 177.098 39.3733 177.418 38.5413L177.802 39.7173C177.482 40.5493 176.922 41.2133 176.122 41.7093C175.338 42.2053 174.346 42.4533 173.146 42.4533ZM183.75 42.3333V29.7333H185.382V33.1653L185.214 32.5653C185.566 31.6053 186.158 30.8773 186.99 30.3813C187.822 29.8693 188.854 29.6133 190.086 29.6133V31.2693C190.022 31.2693 189.958 31.2693 189.894 31.2693C189.83 31.2533 189.766 31.2453 189.702 31.2453C188.374 31.2453 187.334 31.6533 186.582 32.4693C185.83 33.2693 185.454 34.4133 185.454 35.9013V42.3333H183.75Z" fill="white"/>
<defs>
<filter id="filter0_d_454_167" x="0" y="0" width="305" height="80" filterUnits="userSpaceOnUse" color-interpolation-filters="sRGB">
<feFlood flood-opacity="0" result="BackgroundImageFix"/>
<feColorMatrix in="SourceAlpha" type="matrix" values="0 0 0 0 0 0 0 0 0 0 0 0 0 0 0 0 0 0 127 0" result="hardAlpha"/>
<feOffset dy="8"/>
<feGaussianBlur stdDeviation="8"/>
<feColorMatrix type="matrix" values="0 0 0 0 0.105882 0 0 0 0 0.223529 0 0 0 0 1 0 0 0 0.2 0"/>
<feBlend mode="normal" in2="BackgroundImageFix" result="effect1_dropShadow_454_167"/>
<feBlend mode="normal" in="SourceGraphic" in2="effect1_dropShadow_454_167" result="shape"/>
</filter>
<linearGradient id="paint0_linear_454_167" x1="6.03334" y1="-31.6667" x2="193.605" y2="135.052" gradientUnits="userSpaceOnUse">
<stop stop-color="#4960F9"/>
<stop offset="1" stop-color="#1433FF"/>
</linearGradient>
<linearGradient id="paint1_linear_454_167" x1="6.03334" y1="-31.6667" x2="193.605" y2="135.052" gradientUnits="userSpaceOnUse">
<stop stop-color="#4960F9"/>
<stop offset="1" stop-color="#1433FF"/>
</linearGradient>
<linearGradient id="paint2_linear_454_167" x1="-6.46878" y1="-9.76356" x2="73.2644" y2="103.935" gradientUnits="userSpaceOnUse">
<stop stop-color="#5264F9"/>
<stop offset="1" stop-color="#3AF9EF"/>
</linearGradient>
<linearGradient id="paint3_linear_454_167" x1="102.031" y1="16.4622" x2="-52.4428" y2="122.561" gradientUnits="userSpaceOnUse">
<stop stop-color="#C72FF8"/>
<stop offset="1" stop-color="#C630F8" stop-opacity="0"/>
</linearGradient>
</defs>
</svg>
